<?xml version="1.0" encoding="utf-8"?>
<!-- Generator: Adobe Illustrator 22.0.1, SVG Export Plug-In . SVG Version: 6.00 Build 0)  -->
<svg version="1.1" id="Layer_1" xmlns="http://www.w3.org/2000/svg" xmlns:xlink="http://www.w3.org/1999/xlink" x="0px" y="0px"
	 viewBox="0 0 178.1 494" style="enable-background:new 0 0 178.1 494;" xml:space="preserve">
<style type="text/css">
	.st0{fill:#FFFFFF;}
	.st1{fill:none;stroke:#FFFFFF;}
	.st2{clip-path:url(#SVGID_2_);}
	.st3{clip-path:url(#SVGID_6_);}
	.st4{clip-path:url(#SVGID_10_);}
</style>
<g>
	<polygon class="st0" points="0,189 25.3,189 25.3,239.6 44.7,239.6 44.7,189 70,189 70,169.6 0,169.6 	"/>
	<polygon class="st0" points="19.4,53.2 53.2,53.2 53.2,33.7 19.4,33.7 19.4,19.4 70,19.4 70,0 0,0 0,70 19.4,70 	"/>
	<polygon class="st0" points="0,494 70,494 70,474.6 19.4,474.6 19.4,468.7 53.2,468.7 53.2,449.3 19.4,449.3 19.4,443.4 70,443.4 
		70,424 0,424 	"/>
	<path class="st0" d="M50.6,118.5v1.3c0,8.6-7,15.6-15.6,15.6c-8.6,0-15.6-7-15.6-15.6v-1.3V84.8H0v33.7v1.3v1.3h0
		c0.7,18.7,16.1,33.7,35,33.7s34.3-15,35-33.7h0V84.8H50.6V118.5z"/>
	<path class="st0" d="M50.6,288.1L50.6,288.1l0,1.3c0,8.6-7,15.6-15.6,15.6c-8.6,0-15.6-7-15.6-15.6v-35H0v33.7h0v1.3c0,0,0,0,0,0
		v1.3h0c0.7,18.7,16.1,33.7,35,33.7s34.3-15,35-33.7h0v-1.3v-1.3v-33.7H50.6V288.1z"/>
	<path class="st0" d="M61.6,363.4c0-14.7-11.9-26.6-26.6-26.6H0v70h19.4v-15.6L55.3,412l11.1-16l-17.3-10
		C56.9,381.1,61.6,372.6,61.6,363.4z M19.4,370.5v-14.3l15.6,0c3.9,0,7.2,3.2,7.2,7.2c0,3.9-3.2,7.2-7.2,7.2H19.4z"/>
	<polygon class="st0" points="105.9,189 131.2,189 131.2,239.6 150.7,239.6 150.7,189 176,189 176,169.6 105.9,169.6 	"/>
	<polygon class="st0" points="125.4,53.2 159.1,53.2 159.1,33.7 125.4,33.7 125.4,19.4 176,19.4 176,0 105.9,0 105.9,70 125.4,70 	
		"/>
	<polygon class="st0" points="108,494 178.1,494 178.1,474.6 127.5,474.6 127.5,468.7 161.2,468.7 161.2,449.3 127.5,449.3 
		127.5,443.4 178.1,443.4 178.1,424 108,424 	"/>
	<path class="st0" d="M156.5,84.8v33.7h0v1.3c0,8.6-7,15.6-15.6,15.6c-8.6,0-15.6-7-15.6-15.6v-1.3V84.8h-19.4v33.7v1.3v1.3h0
		c0.7,18.7,16.1,33.7,35,33.7s34.3-15,35-33.7h0V84.8H156.5z"/>
	<path class="st0" d="M156.5,288.1v1.3c0,8.6-7,15.6-15.6,15.6c-8.6,0-15.6-7-15.6-15.6v-1.3v-33.7h-19.4v33.7h0v1.3c0,0,0,0,0,0
		v1.3h0c0.7,18.7,16.1,33.7,35,33.7s34.3-15,35-33.7h0v-1.3v-1.3v-33.7h-19.4V288.1z"/>
	<path class="st0" d="M169.6,363.4c0-14.7-11.9-26.6-26.6-26.6h-35v70h19.4v-15.6l35.9,20.7l11.1-16l-17.3-10
		C164.9,381.1,169.6,372.6,169.6,363.4z M150.2,363.4c0,3.9-3.2,7.2-7.2,7.2h-15.6v-14.3l15.6,0C147,356.2,150.2,359.4,150.2,363.4z
		"/>
</g>
</svg>
